<?xml version="1.0" standalone="no"?><!DOCTYPE svg PUBLIC "-//W3C//DTD SVG 1.1//EN" "http://www.w3.org/Graphics/SVG/1.1/DTD/svg11.dtd"><svg t="1573376157934" class="icon" viewBox="0 0 1229 1024" version="1.1" xmlns="http://www.w3.org/2000/svg" p-id="5359" xmlns:xlink="http://www.w3.org/1999/xlink" width="69.611328125" height="58"><defs><style type="text/css"></style></defs><path d="M601.183 41.659c-263.134 0-476.478 213.339-476.478 476.478s213.339 476.48 476.478 476.48c263.135 0 476.48-213.339 476.48-476.48-0.001-263.134-213.339-476.478-476.48-476.478z m203.239 628.903c14.014 14.014 14.014 36.806 0 50.82s-36.801 14.014-50.82 0L601.176 568.945 448.753 721.371c-14.014 14.014-36.801 14.014-50.82 0s-14.023-36.806 0-50.82l152.426-152.426-152.426-152.426c-14.023-14.014-14.023-36.801 0-50.815 14.025-14.023 36.806-14.023 50.82 0L601.176 467.31l152.426-152.426c14.023-14.023 36.806-14.023 50.82 0 14.014 14.014 14.014 36.801 0 50.815L651.996 518.125l152.426 152.437z" p-id="5360" fill="#ad9454"></path></svg>