<?xml version="1.0" standalone="no"?><!DOCTYPE svg PUBLIC "-//W3C//DTD SVG 1.1//EN" "http://www.w3.org/Graphics/SVG/1.1/DTD/svg11.dtd"><svg t="1573459592423" class="icon" viewBox="0 0 1266 1024" version="1.1" xmlns="http://www.w3.org/2000/svg" p-id="4467" xmlns:xlink="http://www.w3.org/1999/xlink" width="247.265625" height="200"><defs><style type="text/css"></style></defs><path d="M608.0305 675.578889a67.548388 67.548388 0 1 1-135.096776 0 67.548388 67.548388 0 0 1 135.096776 0zM1013.384167 515.147508c-42.213784 0-84.459237 33.790028-84.459236 76.003812v253.346042H337.77361V253.346042h185.797654c42.213784 0 76.003813 0 76.003812-42.213784s-33.790028-118.217597-76.003812-118.217597H253.314374c-25.334604 0-67.548388-16.87918-84.459237 0-33.790028 8.455424 0 126.673021 0 160.463049v751.582702c0 42.213784-8.455424 0 33.790028 0h785.37273c33.790028 0 76.003813 25.334604 92.882993 0 25.334604-8.455424 16.87918-84.459237 16.87918-109.793841v-304.015251c0-42.213784-42.213784-76.003813-84.459237-76.003812z m-337.805278 50.669208c25.334604 0 42.213784-8.455424 59.124632-25.334604l287.136071-380.019063c25.334604-33.790028 16.87918-76.003813-8.455425-101.338416-33.790028-25.334604-76.003813-16.87918-101.338416 16.87918l-295.559826 380.019062c-25.334604 25.334604-16.87918 76.003813 16.87918 101.338417 8.455424 8.455424 25.334604 8.455424 42.213784 8.455424z" p-id="4468" fill="#666666"></path></svg>