<?xml version="1.0" standalone="no"?><!DOCTYPE svg PUBLIC "-//W3C//DTD SVG 1.1//EN" "http://www.w3.org/Graphics/SVG/1.1/DTD/svg11.dtd"><svg t="1573461549605" class="icon" viewBox="0 0 1024 1024" version="1.1" xmlns="http://www.w3.org/2000/svg" p-id="5500" xmlns:xlink="http://www.w3.org/1999/xlink" width="200" height="200"><defs><style type="text/css"></style></defs><path d="M512 0C229.2736 0 0 229.2736 0 512s229.2736 512 512 512 512-229.2736 512-512S794.7264 0 512 0z m293.6832 379.1872L474.5216 710.3488c-15.2576 15.2576-38.5024 17.6128-56.32 7.168-3.2768-1.9456-6.3488-4.3008-9.216-7.168L218.3168 519.68c-18.1248-18.1248-18.1248-47.4112 0-65.536 18.1248-18.1248 47.4112-18.1248 65.536 0l157.9008 157.9008 298.3936-298.3936c18.1248-18.1248 47.4112-18.1248 65.536 0 18.1248 18.1248 18.1248 47.4112 0 65.536z m0 0" fill="#1d1d1d" p-id="5501"></path></svg>