<?xml version="1.0" encoding="UTF-8"?>
<svg width="22px" height="22px" viewBox="0 0 22 22" version="1.1" xmlns="http://www.w3.org/2000/svg" xmlns:xlink="http://www.w3.org/1999/xlink">
    <!-- Generator: Sketch 52.5 (67469) - http://www.bohemiancoding.com/sketch -->
    <title>icon_ok</title>
    <desc>Created with Sketch.</desc>
    <g id="icon_ok" stroke="none" stroke-width="1" fill="none" fill-rule="evenodd">
        <g id="Circle-Check" transform="translate(0.000000, 0.500000)" fill="#2CC676" fill-rule="nonzero">
            <path d="M11.0511575,11.7639196 L20.1748584,2.64166759 L22.0067128,4.47381298 L11.051012,15.427774 L5.11682871,9.49359069 L6.94882862,7.66159078 L11.0511575,11.7639196 Z M18.2072669,11.601199 L20.770114,11.9810173 C20.0161251,17.0686031 15.6329101,20.8821633 10.440683,20.8821633 C4.67402065,20.8821633 2.48689958e-14,16.2075798 2.48689958e-14,10.4398859 C2.48689958e-14,4.67470068 4.67470066,0 10.440683,0 C12.5794912,0 14.6242719,0.644980646 16.3518021,1.83154819 L14.8849486,3.96714835 C13.5857277,3.0747684 12.0515278,2.59083912 10.440683,2.59083912 C6.1055816,2.59083912 2.59083911,6.10558162 2.59083911,10.4398859 C2.59083911,14.7767687 6.10497143,18.2913242 10.440683,18.2913242 C14.3440942,18.2913242 17.6408683,15.423008 18.2072669,11.601199 Z" id="Combined-Shape"></path>
        </g>
    </g>
</svg>