<?xml version="1.0" encoding="UTF-8"?>
<svg width="22px" height="22px" viewBox="0 0 22 22" version="1.1" xmlns="http://www.w3.org/2000/svg" xmlns:xlink="http://www.w3.org/1999/xlink">
    <!-- Generator: Sketch 52.5 (67469) - http://www.bohemiancoding.com/sketch -->
    <title>icon_notice</title>
    <desc>Created with Sketch.</desc>
    <g id="icon_notice" stroke="none" stroke-width="1" fill="none" fill-rule="evenodd">
        <path d="M11,20 C6.02943725,20 2,15.9705627 2,11 C2,6.02943725 6.02943725,2 11,2 C15.9705627,2 20,6.02943725 20,11 C20,15.9705627 15.9705627,20 11,20 Z M11,7.72727273 C11.9037387,7.72727273 12.6363636,6.99464777 12.6363636,6.09090909 C12.6363636,5.18717041 11.9037387,4.45454545 11,4.45454545 C10.0962613,4.45454545 9.36363636,5.18717041 9.36363636,6.09090909 C9.36363636,6.99464777 10.0962613,7.72727273 11,7.72727273 Z M9.36363636,9.36363636 L9.36363636,17.5454545 L12.6363636,17.5454545 L12.6363636,9.36363636 L9.36363636,9.36363636 Z" id="Combined-Shape" fill="#E61717" fill-rule="nonzero"></path>
    </g>
</svg>