<?xml version="1.0" encoding="UTF-8"?>
<svg width="22px" height="22px" viewBox="0 0 22 22" version="1.1" xmlns="http://www.w3.org/2000/svg" xmlns:xlink="http://www.w3.org/1999/xlink">
    <!-- Generator: Sketch 52.5 (67469) - http://www.bohemiancoding.com/sketch -->
    <title>whirl</title>
    <desc>Created with Sketch.</desc>
    <g id="whirl" stroke="none" stroke-width="1" fill="none" fill-rule="evenodd">
        <path d="M1.60610465,7.14880752 L0.572070427,6.53267763 C0.45345878,6.46200281 0.414598302,6.30855581 0.485273121,6.18994416 C0.509488582,6.149304 0.544738082,6.11636872 0.586926591,6.0949645 L4.66275192,4.02710587 C4.78588256,3.96463588 4.93634159,4.01381106 4.99881157,4.13694169 C5.01805386,4.17486894 5.02730241,4.21707811 5.0256824,4.25957655 L4.85808736,8.65615646 C4.85282799,8.79412744 4.73671684,8.90171146 4.59874586,8.89645208 C4.55695365,8.89485899 4.51622888,8.88280672 4.48030072,8.86139891 L3.07252601,8.02257554 C3.0064187,8.16366803 2.94394611,8.30697849 2.88518495,8.45241747 C1.12643445,12.8054777 3.22853838,17.7597716 7.58078204,19.5181922 C9.24244484,20.1895475 11.0321249,20.313879 12.7376181,19.9045879 C13.4830044,19.7258874 13.7936447,19.5484691 14.4592163,19.182677 C14.8706199,18.9565733 15.3874217,19.1067886 15.6135254,19.5181922 C15.8396291,19.9295958 15.6894138,20.4463976 15.2780102,20.6725013 C14.4790171,21.1116207 14.0262471,21.3438215 13.1341381,21.5576976 C11.087485,22.0488616 8.9364493,21.8994264 6.94395083,21.0944047 C1.7210841,18.9842296 -0.801447895,13.0390598 1.3089724,7.81558626 C1.4004986,7.58905097 1.49961182,7.36670402 1.60610465,7.14880752 Z M20.4692786,15.6904924 L21.5033128,16.3066223 C21.6219245,16.3772972 21.660785,16.5307442 21.5901101,16.6493558 C21.5658947,16.689996 21.5306452,16.7229312 21.4884567,16.7443355 L17.4126313,18.8121941 C17.2895007,18.8746641 17.1390417,18.8254889 17.0765717,18.7023583 C17.0573294,18.664431 17.0480808,18.6222219 17.0497009,18.5797234 L17.2172959,14.1831435 C17.2225553,14.0451725 17.3386664,13.9375885 17.4766374,13.9428479 C17.5184296,13.944441 17.5591544,13.9564932 17.5950825,13.9779011 L19.0028572,14.8167244 C19.0689646,14.6756319 19.1314371,14.5323215 19.1901983,14.3868825 C20.9489488,10.0338222 18.8468449,5.07952836 14.4946012,3.32110778 C12.8329384,2.64975243 11.0432584,2.52542101 9.33776511,2.93471209 C8.59237883,3.1134126 8.39311062,3.18413466 7.72753906,3.54992676 C7.31613544,3.77603046 6.79933364,3.6258152 6.57322993,3.21441157 C6.34712623,2.80300795 6.49734149,2.28620615 6.90874512,2.06010245 C7.7077382,1.62098309 8.04913611,1.49547845 8.94124512,1.28160233 C10.9878983,0.790438315 13.138934,0.939873589 15.1314324,1.74489523 C20.3542992,3.85507036 22.8768311,9.80024018 20.7664109,15.0237137 C20.6748847,15.250249 20.5757714,15.4725959 20.4692786,15.6904924 Z" id="Combined-Shape" fill="#FFFFFF" fill-rule="nonzero"></path>
    </g>
</svg>