<?xml version="1.0" standalone="no"?><!DOCTYPE svg PUBLIC "-//W3C//DTD SVG 1.1//EN" "http://www.w3.org/Graphics/SVG/1.1/DTD/svg11.dtd"><svg t="1568635150282" class="icon" viewBox="0 0 1024 1024" version="1.1" xmlns="http://www.w3.org/2000/svg" p-id="11258" xmlns:xlink="http://www.w3.org/1999/xlink" width="200" height="200"><defs><style type="text/css"></style></defs><path d="M516.608 0C236.544 0 9.216 229.376 9.216 512s227.328 512 507.392 512S1024 794.624 1024 512 796.672 0 516.608 0z m270.848 727.552c14.848 14.336 14.848 39.936 0 54.272s-40.448 14.336-54.784 0L514.048 566.272 286.208 791.04c-15.36 14.848-41.472 14.848-56.832 0-14.848-14.848-14.848-40.96 0-55.808l227.84-224.768L238.08 294.912c-14.848-14.336-14.848-39.936 0-54.272s40.448-14.336 54.784 0L512 456.192 738.816 232.96c15.36-14.848 41.472-14.848 56.832 0 14.848 14.848 14.848 40.96 0 55.808L568.32 512l219.136 215.552z" p-id="11259"></path></svg>