<?xml version="1.0" encoding="utf-8"?>
<!-- Generator: Adobe Illustrator 23.0.0, SVG Export Plug-In . SVG Version: 6.00 Build 0)  -->
<svg version="1.1" id="图层_1" xmlns="http://www.w3.org/2000/svg" xmlns:xlink="http://www.w3.org/1999/xlink" x="0px" y="0px"
	 viewBox="0 0 200 200" style="enable-background:new 0 0 200 200;" xml:space="preserve">
<style type="text/css">
	.st0{fill:#1E0404;}
</style>
<path class="st0" d="M121.3,171.3l62.5-62.5c4.9-4.9,4.9-12.8,0-17.7l-62.5-62.5c-4.9-4.9-12.8-4.9-17.7,0c-4.9,4.9-4.9,12.8,0,17.7
	l41.2,41.2H25c-6.9,0-12.5,5.6-12.5,12.5c0,6.9,5.6,12.5,12.5,12.5h119.8l-41.2,41.2c-2.4,2.4-3.7,5.6-3.7,8.8s1.2,6.4,3.7,8.8
	C108.5,176.2,116.5,176.2,121.3,171.3z"/>
</svg>
