<?xml version="1.0" encoding="UTF-8"?>
<svg width="22px" height="22px" viewBox="0 0 22 22" version="1.1" xmlns="http://www.w3.org/2000/svg" xmlns:xlink="http://www.w3.org/1999/xlink">
    <!-- Generator: Sketch 52.5 (67469) - http://www.bohemiancoding.com/sketch -->
    <title>icon_wallet</title>
    <desc>Created with Sketch.</desc>
    <g id="icon_wallet" stroke="none" stroke-width="1" fill="none" fill-rule="evenodd">
        <path d="M21.5178223,11.8618164 L21.5178223,15.7387695 L20.2547607,16.8060303 L18.2784424,16.8060303 C17.1059977,16.6065674 16.5197754,15.9520264 16.5197754,14.8424072 C16.5197754,13.7327881 17.1059977,13.0641683 18.2784424,12.8365479 L20.2547607,12.8365479 L21.5178223,11.8618164 Z M21.5178223,16.5378418 L21.5178223,19.7078857 C21.405599,20.3833468 21.1894124,20.7210774 20.8692627,20.7210774 C20.8692627,20.314822 20.8692627,19.0098063 20.8692627,16.8060303 L21.5178223,16.5378418 Z M20.8692627,11.505249 C20.8692627,8.5982666 20.8692627,7.02982585 20.8692627,6.79992676 C20.8692627,6.45507812 20.5059814,6.0501709 20.0003662,6.0501709 C19.6632894,6.0501709 19.2425537,6.0501709 18.7381592,6.0501709 L18.4595947,5.36352163 C19.0920817,5.36352163 19.6056722,5.36352163 20.0003662,5.36352163 C20.5924072,5.36352163 21.5178223,5.67224121 21.5178223,6.79992676 C21.5178223,7.55171712 21.5178223,9.01733398 21.5178223,11.1967773 L20.8692627,11.505249 Z M17.0772705,3.62976074 L18.1578369,6.3885498 L9.77966309,6.3885498 L17.0772705,3.62976074 Z M13.2115479,0 L15.7232666,3.31018066 L7.98376465,6.3885498 L4.31799316,6.3885498 L13.2115479,0 Z M20.2735596,12.1442871 L18.1578369,12.1442871 C16.53479,12.276185 15.7232666,13.1348275 15.7232666,14.7202148 C15.7232666,16.3056021 16.53479,17.2241233 18.1578369,17.4757783 L20.2735596,17.4757783 C20.2735596,19.184401 20.2735596,20.2661674 20.2735596,20.7210774 C20.2735596,21.4034424 20.2669678,21.8393 19.1326904,21.8393 C17.9984131,21.8393 2.16101074,21.8393 1.24414062,21.8393 C0.327270508,21.8393 0.344604492,21.001603 0.344604492,20.7210774 C0.344604492,20.4405518 0.344604492,8.20471191 0.344604492,6.96008301 C0.344604492,5.7154541 0.819091797,5.36352163 1.8326416,5.36352163 C2.50834147,5.36352163 3.43054199,5.36352163 4.59924316,5.36352163 L3.67736816,6.11877441 L2.07226563,6.11877441 C1.71394857,6.0209554 1.53479004,6.11088053 1.53479004,6.3885498 C1.53479004,6.66621908 1.71394857,6.80505371 2.07226563,6.80505371 C12.6853027,6.80505371 18.372111,6.80505371 19.1326904,6.80505371 C20.2735596,6.80505371 20.2735596,7.3425293 20.2735596,7.86315918 C20.2735596,8.21024577 20.2735596,9.63728841 20.2735596,12.1442871 Z M18.6,15.8 C19.1522847,15.8 19.6,15.3522847 19.6,14.8 C19.6,14.2477153 19.1522847,13.8 18.6,13.8 C18.0477153,13.8 17.6,14.2477153 17.6,14.8 C17.6,15.3522847 18.0477153,15.8 18.6,15.8 Z" id="Combined-Shape" fill="#DA960F" fill-rule="nonzero"></path>
    </g>
</svg>